# xmcd
#
# Track frame offsets: 
#        150
#        21958
#        39483
#        47261
#        76218
#        98330
#        116608
#        134089
#        152760
#        178309
#        195048
#        218389
#        245508
#        269214
#        286746
#        309268
#
# Disc length: 4793 seconds
#
# Revision: 0
# Processed by: cddbd v1.4PL0 Copyright (c) Steve Scherf et al.
# Submitted via: ExactAudioCopy v0.90b4
#
DISCID=ce12b710
DTITLE=Ben Harper - Will to Live Plus Bonus Live EP
DYEAR=1997
DGENRE=Blues
TTITLE0=Faded
TTITLE1=Homeless Child
TTITLE2=Number Three
TTITLE3=Roses From My Friends
TTITLE4=Jah Work
TTITLE5=I Want To Be Ready
TTITLE6=Ashes
TTITLE7=Window of a Living Man
TTITLE8=Glory and Consequence
TTITLE9=Mama's Trippin'
TTITLE10=I Shall Not Walk Alone
TTITLE11=The Will to Live
TTITLE12=Faded
TTITLE13=Forever
TTITLE14=I Shall Not Walk Alone
TTITLE15=Voodoo Chile
EXTD=
EXTT0=
EXTT1=
EXTT2=
EXTT3=
EXTT4=
EXTT5=
EXTT6=
EXTT7=
EXTT8=
EXTT9=
EXTT10=
EXTT11=
EXTT12=
EXTT13=
EXTT14=
EXTT15=
PLAYORDER=
